# AST/ASF file generated using VICON BodyLanguage
# -----------------------------------------------
:version 1.10
:name VICON
:units
  mass 1.0
  length 0.45
  angle deg
:documentation
   .ast/.asf automatically generated from VICON data using
   VICON BodyBuilder and BodyLanguage model FoxedUp or BRILLIANT.MOD
:root
   order TX TY TZ RX RY RZ
   axis XYZ
   position 0 0 0  
   orientation 0 0 0 
:bonedata
  begin
     id 1 
     name lhipjoint
     direction 0.690799 -0.707083 0.151096 
     length 2.54797 
     axis 0 0 0  XYZ
  end
  begin
     id 2 
     name lfemur
     direction 0.34202 -0.939693 0  
     length 7.21646  
     axis 0 0 20  XYZ
    dof rx ry rz
    limits (-160.0 20.0)
           (-70.0 70.0)
           (-60.0 70.0)
  end
  begin
     id 3 
     name ltibia
     direction 0.34202 -0.939693 0   
     length 8.16759   
     axis 0 0 20   XYZ
    dof rx
    limits (-10.0 170.0)
  end
  begin
     id 4 
     name lfoot
     direction 0.0487203 -0.133858 0.989802   
     length 1.93375   
     axis -90 7.62852e-016 20   XYZ
    dof rx rz
    limits (-45.0 90.0)
           (-70.0 20.0)
  end
  begin
     id 5 
     name ltoes
     direction 1.53453e-011 -4.21783e-011 1   
     length 0.979747   
     axis -90 7.62852e-016 20   XYZ
    dof rx
    limits (-90.0 20.0)
  end
  begin
     id 6 
     name rhipjoint
     direction -0.694693 -0.703425 0.150315   
     length 2.56122  
     axis 0 0 0  XYZ 
  end
  begin
     id 7 
     name rfemur
     direction -0.34202 -0.939693 0   
     length 7.36786   
     axis 0 0 -20   XYZ
    dof rx ry rz
    limits (-160.0 20.0)
           (-70.0 70.0)
           (-70.0 60.0)
  end
  begin
     id 8 
     name rtibia
     direction -0.34202 -0.939693 0   
     length 8.07288   
     axis 0 0 -20   XYZ
    dof rx
    limits (-10.0 170.0)
 end
 begin
     id 9 
     name rfoot
     direction -0.0428397 -0.117701 0.992125   
     length 1.88295  
     axis -90 -7.62852e-016 -20   XYZ
    dof rx rz
    limits (-45.0 90.0)
           (-20.0 70.0)
  end
  begin
     id 10 
     name rtoes
     direction -1.53456e-011 -4.2187e-011 1   
     length 0.955578   
     axis -90 -7.62852e-016 -20   XYZ
    dof rx
    limits (-90.0 20.0)
  end
  begin
     id 11 
     name lowerback
     direction 0.0288145 0.999398 -0.0193241   
     length 1.92149   
     axis 0 0 0   XYZ
    dof rx ry rz
    limits (-20.0 45.0)
           (-30.0 30.0)
           (-30.0 30.0)
  end
  begin
     id 12 
     name upperback
     direction 0.0233784 0.998099 0.0570278   
     length 1.90435   
     axis 0 0 0   XYZ
    dof rx ry rz
    limits (-20.0 45.0)
           (-30.0 30.0)
           (-30.0 30.0)
  end
  begin
     id 13 
     name thorax
     direction 0.0096694 0.997833 0.0650817   
     length 1.9111   
     axis 0 0 0   XYZ
    dof rx ry rz
    limits (-20.0 45.0)
           (-30.0 30.0)
           (-30.0 30.0)
  end
  begin
     id 14 
     name lowerneck
     direction 0.00516803 0.999916 0.0118722   
     length 1.74664   
     axis 0 0 0   XYZ
    dof rx ry rz
    limits (-20.0 45.0)
           (-30.0 30.0)
           (-30.0 30.0)
  end
  begin
     id 15 
     name upperneck
     direction -0.0510851 0.996117 -0.071696   
     length 1.68498   
     axis 0 0 0   XYZ
    dof rx ry rz
    limits (-20.0 45.0)
           (-30.0 30.0)
           (-30.0 30.0)
  end
  begin
     id 16
     name head
     direction -0.019188 0.999436 -0.0275702  
     length 1.83483  
     axis 0 0 0   XYZ
    dof rx ry rz
    limits (-20.0 45.0)
           (-30.0 30.0)
           (-30.0 30.0)
  end
  begin
     id 17 
     name lclavicle
     direction 0.967006 0.248456 -0.0562957  
     length 3.39395  
     axis 0 0 0   XYZ
    dof ry rz
    limits (-20.0 10.0)
           (0.0 20.0)
  end
  begin
     id 18 
     name lhumerus
     direction 1 -4.48962e-011 -5.62711e-019   
     length 5.24318   
     axis 180 -30 -90   XYZ
    dof rx ry rz
    limits (-60.0 90.0)
           (-90.0 90.0)
           (-90.0 90.0)
  end
  begin
     id 19
     name lradius
     direction 1 -4.48966e-011 7.90625e-027   
     length 2.98999   
     axis 180 -30 -90   XYZ
    dof rx
    limits (-10.0 170.0)
  end
  begin
     id 20
     name lwrist
     direction 1 -4.48959e-011 1.61068e-026   
     length 1.49499   
     axis -9.31229e-015 90 90   XYZ
    dof ry
    limits (-180.0 0.0)
 end
  begin
     id 21 
     name lhand
     direction 1 -4.49017e-011 3.22136e-026   
     length 0.726745   
     axis -2.0555e-014 90 90   XYZ
    dof rx rz
    limits (-90.0 90.0)
           (-45.0 45.0)
  end
  begin
     id 22 
     name lfingers
     direction 1 -4.4898e-011 6.44272e-026   
     length 0.58592   
     axis -4.11101e-014 90 90   XYZ
    dof rx
    limits (0.0 90.0)
  end
  begin
     id 23
     name lthumb
     direction 0.707107 -6.34922e-011 0.707107   
     length 0.841268   
     axis -90 45 2.85299e-015   XYZ
    dof rx rz
    limits (-45.0 45.0)
           (-45.0 45.0)
  end
  begin
     id 24 
     name rclavicle
     direction -0.972232 0.230238 0.0419005   
     length 3.40416  
     axis 0 0 0   XYZ 
    dof ry rz
    limits (-10.0 20.0)
           (-20.0 0.0)
  end
  begin
     id 25 
     name rhumerus
     direction -1 -4.48976e-011 2.48487e-027  
     length 5.37045   
     axis 180 30 90   XYZ
    dof rx ry rz
    limits (-90.0 60.0)
           (-90.0 90.0)
           (-90.0 90.0)
  end
  begin
     id 26 
     name rradius
     direction -1 -4.48942e-011 7.87951e-027   
     length 2.92792   
     axis 180 30 90   XYZ
    dof rx
    limits (-10.0 170.0)
  end
  begin
     id 27 
     name rwrist
     direction -1 -4.48969e-011 1.61068e-026   
     length 1.46396   
     axis -9.31229e-015 -90 -90   XYZ
    dof ry
    limits (-180.0 0.0)
  end
  begin
     id 28
     name rhand
     direction -1 -4.49043e-011 3.22136e-026   
     length 0.784497   
     axis -2.0555e-014 -90 -90   XYZ
    dof rx rz
    limits (-90.0 90.0)
           (-45.0 45.0)
  end
  begin
     id 29
     name rfingers
     direction -1 -4.48823e-011 6.44272e-026   
     length 0.632482   
     axis -4.11101e-014 -90 -90   XYZ
    dof rx
    limits (0.0 90.0)
  end
  begin
     id 30
     name rthumb
     direction -0.707107 -6.34923e-011 0.707107   
     length 0.908121   
     axis -90 -45 -2.85299e-015   XYZ
    dof rx rz
    limits (-45.0 45.0)
           (-45.0 45.0)
  end
:hierarchy
  begin
    root lhipjoint rhipjoint lowerback
    lhipjoint lfemur
    lfemur ltibia
    ltibia lfoot
    lfoot ltoes
    rhipjoint rfemur
    rfemur rtibia
    rtibia rfoot
    rfoot rtoes
    lowerback upperback
    upperback thorax
    thorax lowerneck lclavicle rclavicle
    lowerneck upperneck
    upperneck head
    lclavicle lhumerus
    lhumerus lradius
    lradius lwrist
    lwrist lhand lthumb
    lhand lfingers
    rclavicle rhumerus
    rhumerus rradius
    rradius rwrist
    rwrist rhand rthumb
    rhand rfingers
  end

#!OML:ASF E:\Style6\Style6.ASF
:FULLY-SPECIFIED
:DEGREES
1
root -0.366017 18.1427 0.815785 9.46522 -2.92813 -2.42041
lowerback -0.753232 -0.472051 -0.0578137
upperback -2.6018 -0.58045 2.8871
thorax -2.21752 -0.257171 3.0075
lowerneck -8.35667 -1.74638 3.65448
upperneck 5.87429 -2.07857 -9.13851
head 2.97241 -1.34469 -3.47247
rclavicle 6.23687e-015 3.97569e-016
rhumerus -41.7208 -3.13058 -76.7291
rradius 39.6235
rwrist 31.5234
rhand 2.29739 16.825
rfingers 7.12502
rthumb 27.789 -11.1406
lclavicle 6.23687e-015 3.97569e-016
lhumerus -39.7912 -17.1752 88.8286
lradius 31.1159
lwrist -12.1296
lhand 1.35188 11.488
lfingers 7.12502
lthumb 26.8846 39.5962
rfemur -12.3673 7.3842 23.436
rtibia 16.6738
rfoot -9.01517 -14.4442
rtoes -2.7584
lfemur -13.1416 -8.97859 -13.2326
ltibia 20.7651
lfoot -9.61349 14.7451
ltoes -17.9763
2
root -0.359158 18.144 0.808287 9.60253 -2.96265 -2.46769
lowerback -0.847545 -0.487159 0.0401848
upperback -2.61595 -0.600751 2.92209
thorax -2.17863 -0.269184 2.98775
lowerneck -8.33167 -1.76116 3.62636
upperneck 5.75726 -2.10151 -9.15479
head 2.93198 -1.35484 -3.47181
rclavicle -1.0461e-014 2.50469e-014
rhumerus -41.6665 -3.12045 -76.6776
rradius 39.4969
rwrist 31.1428
rhand 2.14678 16.7881
rfingers 7.12502
rthumb 27.645 -11.2007
lclavicle -1.0461e-014 2.50469e-014
lhumerus -39.8545 -17.4977 89.1756
lradius 31.4362
lwrist -12.3465
lhand 1.20821 11.4957
lfingers 7.12502
lthumb 26.7471 39.625
rfemur -12.4896 7.34509 23.4505
rtibia 16.5522
rfoot -8.63323 -14.4759
rtoes -4.59096
lfemur -13.3744 -9.05284 -13.1762
ltibia 20.9024
lfoot -9.72222 14.8365
ltoes -17.6573
3
root -0.351662 18.1441 0.799904 9.65331 -3.01903 -2.58608
lowerback -0.753585 -0.488144 0.219572
upperback -2.66947 -0.59713 2.97171
thorax -2.28813 -0.269486 2.93965
lowerneck -8.33285 -1.779 3.62558
upperneck 5.77951 -2.12105 -9.19778
head 2.93712 -1.36684 -3.48605
rclavicle -9.19379e-016 -9.54166e-015
rhumerus -41.7594 -3.01684 -76.6687
rradius 39.4795
rwrist 30.7261
rhand 1.96731 16.5573
rfingers 7.12502
rthumb 27.4733 -11.4588
lclavicle -9.19379e-016 -9.54166e-015
lhumerus -40.0514 -17.8187 89.5436
lradius 31.8331
lwrist -12.5081
lhand 1.08682 11.3137
lfingers 7.12502
lthumb 26.6309 39.4607
rfemur -12.5893 7.34517 23.5426
rtibia 16.5733
rfoot -8.62066 -14.4496
rtoes -4.55075
lfemur -13.4128 -9.12659 -13.0543
ltibia 20.8487
lfoot -9.74515 14.9264
ltoes -17.2702
4
root -0.343749 18.145 0.794477 9.63119 -3.14185 -2.4774
lowerback -0.684839 -0.48963 0.171324
upperback -2.66823 -0.598642 2.94859
thorax -2.32517 -0.269267 2.94373
lowerneck -8.31767 -1.77817 3.6254
upperneck 5.7501 -2.12116 -9.20606
head 2.92575 -1.36643 -3.48791
rclavicle 1.44616e-014 -3.61788e-014
rhumerus -41.7649 -2.95101 -76.6816
rradius 39.4127
rwrist 30.3302
rhand 1.87053 16.3821
rfingers 7.12502
rthumb 27.3808 -11.6487
lclavicle 1.44616e-014 -3.61788e-014
lhumerus -40.2843 -18.0987 89.8853
lradius 32.3903
lwrist -12.5478
lhand 1.0988 11.3268
lfingers 7.12502
lthumb 26.6424 39.4721
rfemur -12.6128 7.3781 23.3783
rtibia 16.5856
rfoot -8.71779 -14.3911
rtoes -3.8518
lfemur -13.3603 -9.1919 -13.222
ltibia 20.8089
lfoot -9.68358 15.0994
ltoes -17.4627
5
root -0.337355 18.1477 0.790315 9.65149 -3.25969 -2.2919
lowerback -0.683727 -0.484119 0.0340006
upperback -2.68101 -0.593026 2.89243
thorax -2.33841 -0.264011 2.96309
lowerneck -8.28283 -1.77671 3.63557
upperneck 5.73716 -2.12247 -9.18242
head 2.91614 -1.36484 -3.48166
rclavicle -2.29348e-014 4.37326e-015
rhumerus -41.7741 -3.10609 -76.6113
rradius 39.3071
rwrist 30.1691
rhand 1.8365 16.3713
rfingers 7.12502
rthumb 27.3482 -11.6647
lclavicle -2.29348e-014 4.37326e-015
lhumerus -40.5455 -18.4182 90.2346
lradius 33.0019
lwrist -12.5683
lhand 1.12146 11.5494
lfingers 7.12502
lthumb 26.6641 39.6914
rfemur -12.662 7.4331 23.1239
rtibia 16.571
rfoot -8.74301 -14.3382
rtoes -3.38041
lfemur -13.351 -9.268 -13.4625
ltibia 20.7691
lfoot -9.63161 15.2427
ltoes -17.5692
6
root -0.33224 18.1485 0.784842 9.65289 -3.31813 -2.2777
lowerback -0.62225 -0.492661 0.0415704
upperback -2.71089 -0.602416 2.90554
thorax -2.4033 -0.268079 2.97358
lowerneck -8.26694 -1.78686 3.58459
upperneck 5.80356 -2.12874 -9.14029
head 2.93397 -1.36816 -3.46131
rclavicle 4.79568e-015 -3.57812e-014
rhumerus -41.8292 -3.26255 -76.4784
rradius 39.21
rwrist 30.0005
rhand 1.90169 16.4343
rfingers 7.12502
rthumb 27.4106 -11.5918
lclavicle 4.79568e-015 -3.57812e-014
lhumerus -40.8178 -18.6683 90.5872
lradius 33.5497
lwrist -12.7243
lhand 1.14895 11.649
lfingers 7.12502
lthumb 26.6904 39.7869
rfemur -12.6746 7.44458 23.0845
rtibia 16.5461
rfoot -8.63805 -14.3278
rtoes -3.70936
lfemur -13.3302 -9.31982 -13.4969
ltibia 20.7249
lfoot -9.59199 15.3238
ltoes -17.5257
7
root -0.326824 18.1484 0.780693 9.68637 -3.37608 -2.3919
lowerback -0.712417 -0.486357 0.195113
upperback -2.66344 -0.59487 2.9485
thorax -2.30513 -0.268106 2.92981
lowerneck -8.27242 -1.79105 3.52221
upperneck 5.75608 -2.13263 -9.1102
head 2.92152 -1.36953 -3.44143
rclavicle -5.46658e-015 -3.97569e-016
rhumerus -41.7858 -3.40737 -76.3759
rradius 39.1459
rwrist 29.7852
rhand 1.98327 16.3555
rfingers 7.12502
rthumb 27.4886 -11.6582
lclavicle -5.46658e-015 -3.97569e-016
lhumerus -40.9272 -18.9775 90.9173
lradius 34.0094
lwrist -12.7896
lhand 1.04978 11.5553
lfingers 7.12502
lthumb 26.5955 39.7076
rfemur -12.6752 7.4697 23.1815
rtibia 16.4588
rfoot -8.58804 -14.2679
rtoes -3.77069
lfemur -13.3691 -9.37212 -13.3839
ltibia 20.7393
lfoot -9.62644 15.4039
ltoes -17.6481
8
root -0.320787 18.1481 0.775208 9.76002 -3.4497 -2.53319
lowerback -0.855389 -0.468176 0.368528
upperback -2.60543 -0.573325 2.98668
thorax -2.1673 -0.261696 2.86912
lowerneck -8.2614 -1.78274 3.56435
upperneck 5.65787 -2.13116 -9.13143
head 2.88973 -1.36677 -3.45325
rclavicle 2.33572e-015 1.03368e-014
rhumerus -41.6949 -3.65291 -76.2719
rradius 39.0309
rwrist 29.7082
rhand 1.99582 16.2726
rfingers 7.12502
rthumb 27.5006 -11.7392
lclavicle 2.33572e-015 1.03368e-014
lhumerus -41.021 -19.3801 91.2611
lradius 34.4788
lwrist -12.657
lhand 0.658686 11.2663
lfingers 7.12502
lthumb 26.2211 39.4749
rfemur -12.7254 7.52603 23.2932
rtibia 16.3471
rfoot -8.49998 -14.221
rtoes -3.8757
lfemur -13.4603 -9.41843 -13.2375
ltibia 20.7837
lfoot -9.67401 15.5414
ltoes -17.7791
9
root -0.3162 18.1492 0.768521 9.82254 -3.51434 -2.61824
lowerback -0.867222 -0.462527 0.45119
upperback -2.62626 -0.564485 3.02399
thorax -2.18302 -0.258375 2.86115
lowerneck -8.14065 -1.77498 3.5973
upperneck 5.5585 -2.12842 -9.14578
head 2.83977 -1.36081 -3.45966
rclavicle -9.44227e-016 -8.34896e-015
rhumerus -41.6876 -3.88711 -76.1475
rradius 38.871
rwrist 29.7127
rhand 1.95225 16.1929
rfingers 7.12502
rthumb 27.4589 -11.8256
lclavicle -9.44227e-016 -8.34896e-015
lhumerus -41.2167 -19.6262 91.5914
lradius 34.9635
lwrist -12.5163
lhand 0.432239 11.0564
lfingers 7.12502
lthumb 26.0043 39.297
rfemur -12.7728 7.57199 23.3511
rtibia 16.2418
rfoot -8.42679 -14.209
rtoes -4.18448
lfemur -13.546 -9.48263 -13.1414
ltibia 20.8154
lfoot -9.73674 15.6501
ltoes -17.4602
